# Alias OBJ Model File
# Exported from SketchUp, (c) 2000-2012 Trimble Navigation Limited
# File units = meters

mtllib cubo.mtl

g Mesh1 Model

usemtl FrontColor
v -0.01 0 -0
vt 0.393701 0
vn 0 -1 -0
v -0.01 0 -7.27
vt 0.393701 286.22
v 5.11 0 -7.27
vt -201.181 286.22
v 5.11 0 -0
vt -201.181 0
f 1/1/1 2/2/1 3/3/1 4/4/1 

vt -286.22 0
vn -1 0 -0
vt 0 0
v -0.01 2.79 -0
vt 0 109.843
v -0.01 2.79 -7.27
vt -286.22 109.843
f 2/5/2 1/6/2 5/7/2 6/8/2 

vt -0.393701 0
vn 0 0 1
vt 201.181 0
v 5.11 2.79 -0
vt 201.181 109.843
vt -0.393701 109.843
f 1/9/3 4/10/3 7/11/3 5/12/3 

vn 1 0 -0
vt 286.22 0
v 5.11 2.79 -7.27
vt 286.22 109.843
f 4/6/4 3/13/4 8/14/4 7/7/4 

vn 0 0 -1
vt 0.393701 109.843
vt -201.181 109.843
f 3/4/5 2/1/5 6/15/5 8/16/5 

vt -0.393701 286.22
vn 0 1 -0
vt 201.181 286.22
f 6/17/6 5/9/6 7/10/6 8/18/6 

